<svg xmlns="http://www.w3.org/2000/svg" xmlns:xlink="http://www.w3.org/1999/xlink" version="1.1" width="839.056pt" height="1190.552pt" viewBox="0 0 839.056 1190.552">
<defs>
<clipPath id="clip_1">
<path transform="matrix(2,0,0,-2,0,1190.552)" d="M0 595.276H419.528V0H0Z"/>
</clipPath>
<path id="font_2_38" d="M.27392579 .26171876 .36523438 .23632813C.36458335 .15917969 .35058595 .09838867 .3232422 .053955079 .29589845 .009521484 .25846354-.0126953129 .2109375-.0126953129 .15234375-.0126953129 .10888672 .018005372 .080566409 .07940674 .052246095 .1408081 .038085939 .23421224 .038085939 .35961915 .038085939 .618571 .08805338 .7480469 .18798828 .7480469 .22314453 .7480469 .24983724 .7322591 .2680664 .7006836H.27001954V.7363281H.35888673V.4970703H.27001954C.27001954 .5467122 .2643229 .5846761 .2529297 .6109619 .24153646 .63724777 .22526042 .6503906 .20410156 .6503906 .18847656 .6503906 .17716472 .64404806 .17016602 .6313629 .16316732 .6186778 .15836589 .59355166 .15576172 .5559845 .15315755 .51842758 .15185547 .45736695 .15185547 .37280274 .15185547 .256368 .1558431 .17928569 .16381836 .14155579 .17179363 .10382589 .18815105 .08496094 .21289063 .08496094 .23404949 .08496094 .24951172 .098592128 .25927735 .12585449 .26904298 .15312703 .27392579 .19841512 .27392579 .26171876Z"/>
<path id="font_2_36" d="M.1850586 .25585938 .16699219 .08886719H.21386719V0H.017089844V.08886719H.06298828L.14404297 .64746096H.09277344V.7363281H.36523438V.64746096H.31396485L.39501954 .08886719H.44091798V0H.24414063V.08886719H.29101563L.27294923 .25585938H.1850586M.19189453 .34472657H.26611329L.23486328 .6738281H.22314453L.19189453 .34472657Z"/>
<path id="font_2_53" d="M.1821289 .33398438V.08886719H.2368164V0H.016113282V.08886719H.078125V.64746096H.016113282V.7363281H.20019531C.26236979 .7363281 .31152345 .71807357 .34765626 .68156436 .38378907 .6450551 .40185548 .5966441 .40185548 .5363312 .40185548 .4584198 .3725586 .40055848 .31396485 .3627472L.39404298 .08886719H.43798829V0H.31396485L.22314453 .33691407C.21240235 .33496095 .19873047 .33398438 .1821289 .33398438M.1821289 .64746096V.42285157C.22151692 .42285157 .24983724 .43190513 .26708985 .4500122 .28434245 .4681193 .29296876 .49690757 .29296876 .53637698 .29296876 .5781352 .28426109 .6070862 .2668457 .62323 .24943035 .639384 .2211914 .64746096 .1821289 .64746096Z"/>
<path id="font_2_55" d="M.40576173 .7363281V.46679688H.328125V.6582031H.26611329V.08886719H.32421876V0H.104003909V.08886719H.16210938V.6582031H.100097659V.46679688H.021972657V.7363281H.40576173Z"/>
<path id="font_2_3" d="M0 0Z"/>
<path id="font_2_57" d="M.1850586-.005859375 .06201172 .64746096H.011230469V.7363281H.21484375V.64746096H.16503906C.20475261 .45247398 .22607422 .30208335 .2290039 .19628906H.23095703C.2335612 .29166667 .25423179 .44205729 .29296876 .64746096H.24316406V.7363281H.43701173V.64746096H.38378907L.26513673-.005859375H.1850586Z"/>
<path id="font_2_44" d="M.021972657 0V.08886719H.078125V.64746096H.021972657V.7363281H.23876953V.64746096H.1821289V.08886719H.23876953V0H.021972657Z"/>
<path id="font_2_49" d="M.025878907 0V.08886719H.076171878V.64746096H.025878907V.7363281H.18896485L.2734375 .46905519 .3232422 .2540741H.32617188L.3149414 .47642518V.64746096H.26513673V.7363281H.45410157V.64746096H.4038086V0H.32177735L.23144531 .28240968C.22167969 .31302897 .21142578 .3501638 .2006836 .3938141L.16015625 .55944827H.15722656L.16503906 .3351593V.08886719H.21484375V0H.025878907Z"/>
<path id="font_2_54" d="M.046875 0V.2529297H.13623047V.1850586C.13623047 .14567058 .14029949 .118001308 .1484375 .10205078 .15657552 .08610026 .17073567 .078125 .19091797 .078125 .20654297 .078125 .2191569 .084620159 .22875977 .09761047 .23836263 .11061096 .24316406 .1279958 .24316406 .14976502 .24316406 .16828919 .23982747 .18851216 .2331543 .21043396 .22648113 .23236592 .21850586 .25047813 .20922852 .2647705 .19995117 .2790731 .17626953 .3103434 .1381836 .35858155 .09879557 .40813194 .07259115 .44797264 .059570314 .47810365 .04654948 .5082347 .040039064 .5434926 .040039064 .58387759 .040039064 .63208517 .05086263 .6714986 .072509769 .7021179 .0941569 .73273727 .121907558 .7480469 .15576172 .7480469 .18408203 .7480469 .20882161 .7368622 .22998047 .7144928V.7363281H.31884767V.51660159H.22998047V.572464C.22998047 .6031647 .22607422 .6252899 .21826172 .6388397 .21044922 .6523997 .19807942 .6591797 .18115235 .6591797 .15250652 .6591797 .1381836 .64096578 .1381836 .60453799 .1381836 .5835317 .14241536 .5619507 .1508789 .5397949 .15934246 .51763918 .17415364 .49354045 .1953125 .46749879L.24121094 .4108429C.31054688 .32489524 .34521485 .24283345 .34521485 .1646576 .34521485 .1135203 .33276368 .07117716 .30786134 .037628175 .28295899 .004079183 .25195313-.0126953129 .21484375-.0126953129 .18457031-.0126953129 .15836589-.00091552737 .13623047 .022644043V0H.046875Z"/>
<path id="font_2_82" d="M.171875-.0126953129C.12434896-.0126953129 .08951823 .009318034 .06738281 .053344728 .045247396 .09737142 .034179689 .16520183 .034179689 .25683595 .034179689 .34978233 .045410158 .41777549 .067871097 .46081544 .09033203 .50386556 .125 .5253906 .171875 .5253906 .26464845 .5253906 .31103517 .43554688 .31103517 .25585938 .31103517 .076822917 .26464845-.0126953129 .171875-.0126953129M.171875 .4404297C.15559896 .4404297 .14469402 .42841593 .13916016 .40438844 .1336263 .3803711 .13085938 .33143107 .13085938 .25756837 .13085938 .2036438 .13216146 .16360982 .13476563 .13746643 .1373698 .111323039 .1414388 .09391785 .14697266 .085250858 .15250652 .07659403 .1608073 .072265628 .171875 .072265628 .19042969 .072265628 .20206706 .08631897 .20678711 .11442566 .21150716 .14253235 .21386719 .18992107 .21386719 .2565918 .21386719 .330129 .21101888 .3791504 .20532227 .403656 .19962566 .42817179 .18847656 .4404297 .171875 .4404297Z"/>
<path id="font_2_80" d="M.021972657 0V.08496094H.060058595V.42871095H.020019532V.5136719H.15185547V.46826173H.1538086C.17496746 .5024414 .20133464 .51953127 .23291016 .51953127 .26416017 .51953127 .28889976 .5024414 .3071289 .46826173 .33024089 .5024414 .35888673 .51953127 .3930664 .51953127 .45784507 .51953127 .49023438 .47309367 .49023438 .3802185V.08496094H.52783206V0H.39794923V.3764038C.39794923 .39823405 .3959147 .41338603 .3918457 .42185975 .3877767 .43033348 .3798828 .4345703 .36816407 .4345703 .35546876 .4345703 .34440104 .42944337 .33496095 .41918946 .32552085 .40893556 .32080079 .40234376 .32080079 .39941407V.08496094H.35888673V0H.2290039V.3764038C.2290039 .397583 .22672527 .41257224 .22216797 .42137147 .21761067 .43017069 .20963542 .4345703 .19824219 .4345703 .18196614 .4345703 .1665039 .42285157 .15185547 .39941407V.08496094H.1899414V0H.021972657Z"/>
<path id="font_2_72" d="M.22607422 .15429688 .3071289 .12451172C.2960612 .080566409 .2788086 .04671224 .2553711 .022949219 .2319336-.00081380209 .20507813-.0126953129 .17480469-.0126953129 .12597656-.0126953129 .09016927 .008417766 .06738281 .05064392 .044596357 .09288025 .033203126 .15997823 .033203126 .25193788 .033203126 .34423319 .044596357 .41288249 .06738281 .45788575 .09016927 .502889 .12565105 .5253906 .17382813 .5253906 .21354167 .5253906 .24601238 .50685629 .27124024 .4697876 .2964681 .4327189 .30908204 .3790741 .30908204 .30885316V.23046875H.12988281V.20843506C.12988281 .16239421 .13346355 .12818909 .140625 .1058197 .14778646 .08345032 .15983074 .072265628 .17675781 .072265628 .20507813 .072265628 .22151692 .099609378 .22607422 .15429688M.12988281 .30371095H.21679688V.348938C.21679688 .41318766 .20214844 .4453125 .17285156 .4453125 .15625 .4453125 .14493816 .43580628 .13891602 .41679383 .13289388 .39778138 .12988281 .36746217 .12988281 .32583619V.30371095Z"/>
<path id="font_2_79" d="M.056152345 .08496094V.6513672H.020019532V.7363281H.14794922V.08496094H.17822266V0H.020019532V.08496094H.056152345Z"/>
<path id="font_2_76" d="M.110839847 .7480469C.1274414 .7480469 .1414388 .7423503 .15283203 .73095706 .16422527 .7195638 .16992188 .7055664 .16992188 .68896487 .16992188 .6726888 .16422527 .65877279 .15283203 .6472168 .1414388 .6356608 .1274414 .6298828 .110839847 .6298828 .094563808 .6298828 .08064779 .6356608 .0690918 .6472168 .05753581 .65877279 .051757814 .6726888 .051757814 .68896487 .051757814 .7055664 .05753581 .7195638 .0690918 .73095706 .08064779 .7423503 .094563808 .7480469 .110839847 .7480469M.067871097 .08496094V.42871095H.030761719V.5136719H.16015625V.08496094H.18896485V0H.030761719V.08496094H.067871097Z"/>
<path id="font_2_85" d="M.020996094 0V.08496094H.06689453V.42871095H.020996094V.5136719H.15917969V.4140625H.16113281C.17773438 .45651246 .1940918 .48470054 .21020508 .4986267 .22631836 .51256307 .24951172 .51953127 .27978517 .51953127V.421875C.19938152 .421875 .15917969 .37597657 .15917969 .2841797V.08496094H.2109375V0H.020996094Z"/>
<path id="font_2_29" d="M.033203126 .39257813V.5136719H.13378906V.39257813H.033203126M.033203126 0V.12109375H.13378906V0H.033203126Z"/>
<path id="font_2_70" d="M.2319336 .18652344 .31396485 .15136719C.31233726 .098958339 .29947917 .05851237 .27539063 .030029297 .2513021 .001546224 .21988933-.0126953129 .18115235-.0126953129 .12874349-.0126953129 .091145839 .0077667238 .068359378 .048690797 .045572919 .08962504 .034179689 .15868123 .034179689 .25585938 .034179689 .34848023 .043701173 .41557823 .06274414 .45715333 .08178711 .49873863 .111816409 .51953127 .15283203 .51953127 .1850586 .51953127 .20979817 .50358077 .22705078 .4716797H.2290039V.5136719H.31396485V.32714845H.2290039C.2290039 .3686727 .22517903 .3977712 .2175293 .41444398 .20987956 .43111674 .19710286 .43945313 .17919922 .43945313 .15966797 .43945313 .14672852 .42858378 .14038086 .4068451 .1340332 .38511659 .13085938 .34777833 .13085938 .29483033V.21640015C.13085938 .16181438 .13468425 .12414551 .14233399 .103393558 .14998372 .0826416 .16292317 .072265628 .18115235 .072265628 .20003255 .072265628 .21321614 .08035787 .22070313 .09654236 .22819011 .112726848 .2319336 .14272054 .2319336 .18652344Z"/>
<path id="font_2_75" d="M.020019532 0V.08496094H.05810547V.6513672H.020019532V.7363281H.14990235V.49169923C.17561849 .51416018 .20003255 .5253906 .22314453 .5253906 .28564454 .5253906 .31689454 .47634379 .31689454 .37825013V.08496094H.35498048V0H.22509766V.38763429C.22509766 .4228312 .21500652 .4404297 .19482422 .4404297 .1821289 .4404297 .16715496 .4321289 .14990235 .41552735V.08496094H.18798828V0H.020019532Z"/>
<path id="font_2_68" d="M.35986329 .08496094V0H.22802735V.043945314H.22607422C.2055664 .0107421879 .17789714-.005859375 .1430664-.005859375 .110839847-.005859375 .084472659 .008728027 .063964847 .037902833 .04345703 .06708781 .033203126 .105153407 .033203126 .15209961 .033203126 .20426433 .044596357 .24436443 .06738281 .2723999 .09016927 .3004354 .11930338 .31445313 .15478516 .31445313 .18375652 .31445313 .20817058 .30240885 .22802735 .2783203V.36669923C.22802735 .40055339 .22387696 .42211915 .21557617 .43139649 .20727539 .44067384 .19580078 .4453125 .18115235 .4453125 .1508789 .4453125 .13411458 .4235026 .13085938 .3798828L.045898439 .4037323C.052408857 .44233705 .06803385 .47226463 .09277344 .493515 .11751302 .51476547 .14794922 .5253906 .18408203 .5253906 .22314453 .5253906 .25553385 .5127614 .28125 .48750306 .30696617 .46224467 .31982423 .42745973 .31982423 .3831482V.08496094H.35986329M.22802735 .10107422V.21435547C.21435547 .23030599 .19905599 .23828125 .1821289 .23828125 .14729817 .23828125 .12988281 .2105306 .12988281 .1550293 .12988281 .1011556 .14729817 .07421875 .1821289 .07421875 .19873047 .07421875 .21402996 .08317057 .22802735 .10107422Z"/>
<path id="font_2_39" d="M.036132814 0V.08886719H.08984375V.64746096H.036132814V.7363281H.16894531C.25358073 .7363281 .31477867 .7061971 .35253907 .64593508 .39029948 .58567306 .4091797 .4921875 .4091797 .36547853 .4091797 .2413737 .38989259 .1494344 .35131837 .089660648 .31274415 .02988688 .2529297 0 .171875 0H.036132814M.19384766 .64746096V.08886719C.23160808 .08951823 .2578939 .1092275 .27270509 .147995 .28751628 .18677266 .29492188 .25519309 .29492188 .35325624 .29492188 .42982484 .29182945 .48912049 .28564454 .5311432 .27945964 .5731761 .26920573 .60306808 .2548828 .6208191 .24055989 .6385803 .22021485 .64746096 .19384766 .64746096Z"/>
<path id="font_2_81" d="M.024902344 0V.08496094H.06298828V.42871095H.022949219V.5136719H.15478516V.47265626H.15722656C.17838542 .50390627 .20426433 .51953127 .23486328 .51953127 .2618815 .51953127 .28312174 .5083669 .29858399 .4860382 .31404624 .4637197 .32177735 .43252055 .32177735 .3924408V.08496094H.35986329V0H.22998047V.37835694C.22998047 .3992106 .22794597 .41379295 .22387696 .42210389 .21980794 .43041484 .21223958 .4345703 .20117188 .4345703 .18880208 .4345703 .17797852 .42903648 .16870117 .41796876 .15942383 .40690104 .15478516 .4000651 .15478516 .39746095V.08496094H.1928711V0H.024902344Z"/>
</defs>
<g>
<g id="layer_1" data-name="Livello 1">
<g clip-path="url(#clip_1)">
<path transform="matrix(2,0,0,-2,342.617,472.83143)" d="M0 0C.027 .058 .054 .115 .076 .164 2.254-1.223 4.471-1.014 6.736-.15 8.939 .69 11.058 1.761 13.214 2.733 15.655 3.834 18.104 4.916 20.696 5.779 20.401 5.937 20.162 6.082 19.912 6.195 18.145 6.991 16.306 7.206 14.437 6.918 13.153 6.72 11.889 6.357 10.609 6.118 8.404 5.706 6.194 5.609 3.989 6.143 3.043 6.372 2.136 6.729 1.277 7.237 1.218 7.272 1.164 7.316 1.089 7.369 1.491 8.215 1.886 9.043 2.295 9.902 2.44 9.836 2.583 9.778 2.72 9.708 4.427 8.841 6.223 8.63 8.07 8.753 10.132 8.891 12.134 9.422 14.143 9.916 15.858 10.338 17.578 10.733 19.333 10.871 21.769 11.063 24.16 10.754 26.503 9.981 28.17 9.431 29.756 8.666 31.257 7.678 31.344 7.621 31.434 7.572 31.546 7.505 31.625 8.558 31.484 9.544 31.251 10.512 30.83 12.263 30.064 13.784 28.849 14.992 28.092 15.745 27.178 16.131 26.228 16.437 24.723 16.922 23.191 17.221 21.624 17.208 18.75 17.185 15.877 17.126 13.003 17.099 11.153 17.082 9.305 17.149 7.461 17.357 5.56 17.573 3.671 17.876 1.798 18.308 1.706 18.329 1.616 18.359 1.498 18.393 1.787 19.319 2.071 20.23 2.36 21.158 3.093 21.016 3.802 20.864 4.515 20.745 5.485 20.583 6.457 20.442 7.43 20.3 8.325 20.169 9.22 19.977 10.118 19.942 11.493 19.89 12.874 19.89 14.246 19.982 15.618 20.073 16.982 20.306 18.35 20.477 18.389 20.482 18.427 20.495 18.471 20.56 18.301 20.6 18.132 20.639 17.962 20.68 15.451 21.295 13.127 22.449 10.89 23.85 9.274 24.862 7.746 26.018 6.385 27.442 6.171 27.666 5.96 27.901 5.784 28.164 5.714 28.269 5.684 28.504 5.74 28.606 6.164 29.371 6.614 30.118 7.074 30.902 7.319 30.606 7.538 30.338 7.76 30.073 9.117 28.455 10.758 27.318 12.554 26.445 14.499 25.499 16.534 24.878 18.602 24.42 20.171 24.073 21.76 23.845 23.343 23.583 24.278 23.428 25.221 23.334 26.154 23.172 28.648 22.74 30.943 21.713 33.051 20.147 33.501 19.813 33.944 19.468 34.449 19.083 34.026 19.866 33.644 20.6 33.241 21.319 32.236 23.113 30.834 24.356 29.071 25.054 28.625 25.231 28.131 25.267 27.655 25.327 25.599 25.585 23.534 25.613 21.469 25.643 19.979 25.664 18.52 25.895 17.15 26.621 15.967 27.249 14.991 28.138 14.34 29.444 14.294 29.536 14.253 29.632 14.195 29.755 14.966 30.182 15.727 30.603 16.479 31.02 16.509 31.005 16.532 31.003 16.539 30.99 17.243 29.666 18.36 29.077 19.634 28.802 21.864 28.322 24.035 28.572 26.138 29.547 26.279 29.612 26.417 29.687 26.575 29.767 26.405 30.332 26.103 30.762 25.735 31.134 24.756 32.128 23.592 32.755 22.365 33.232 20.01 34.147 17.591 34.784 15.143 35.279 13.822 35.546 12.493 35.758 11.168 35.995 11.136 36.001 11.104 36.016 11.016 36.045 11.304 36.382 11.557 36.703 11.833 36.997 12.278 37.471 12.742 37.923 13.189 38.394 13.354 38.568 13.536 38.588 13.739 38.55 15.886 38.145 18.02 37.674 20.128 37.054 23.124 36.172 26.029 35.013 28.788 33.41 31.655 31.745 34.278 29.691 36.551 27.088 36.622 27.008 36.697 26.933 36.805 26.817 36.848 27.511 36.901 28.146 36.924 28.783 36.991 30.592 36.778 32.344 36.01 33.963 35.192 35.689 33.908 36.656 32.19 36.858 30.085 37.106 27.976 37.313 25.872 37.572 23.855 37.82 21.906 38.344 20.152 39.568 19.287 40.171 18.528 40.914 17.886 41.806 17.811 41.91 17.745 42.024 17.657 42.163 18.412 42.669 19.148 43.163 19.844 43.631 20.327 43.167 20.761 42.691 21.247 42.297 22.405 41.358 23.731 40.879 25.129 40.673 26.399 40.486 27.677 40.359 28.952 40.207 29.002 40.201 29.053 40.206 29.153 40.206 29.036 40.355 28.946 40.478 28.848 40.594 27.613 42.07 27.047 43.836 27.072 45.856 27.076 46.187 27.086 46.521 27.128 46.847 27.143 46.96 27.252 47.117 27.345 47.148 28.211 47.434 29.083 47.697 29.954 47.965 29.977 47.972 30.003 47.962 30.051 47.958 30 47.774 29.953 47.6 29.903 47.428 29.3 45.382 29.786 43.441 31.249 42.062 31.982 41.372 32.792 40.816 33.661 40.385 34.7 39.871 35.754 39.395 36.862 38.874 36.095 42.659 34.579 45.865 31.935 48.397 32.46 48.477 32.925 48.553 33.392 48.619 33.938 48.696 34.486 48.76 35.032 48.84 35.242 48.871 35.371 48.751 35.494 48.589 36.49 47.271 37.313 45.826 37.975 44.262 38.015 44.167 38.058 44.073 38.134 43.899 38.21 44.256 38.259 44.544 38.332 44.823 38.672 46.119 39.018 47.413 39.361 48.708 39.409 48.889 39.506 48.993 39.679 48.982 40.511 48.929 41.343 48.874 42.222 48.817 40.943 45.52 40.29 42.113 40.405 38.554 41.272 39.025 42.131 39.486 42.984 39.96 43.408 40.195 43.84 40.421 44.237 40.706 45.546 41.646 46.426 43.012 47.051 44.58 47.442 45.56 47.721 46.596 48.066 47.653 48.821 47.407 49.641 47.14 50.478 46.868 50.261 45.671 49.943 44.529 49.464 43.462 48.99 42.406 48.443 41.393 47.939 40.384 47.953 40.389 48.031 40.409 48.104 40.442 50.569 41.55 52.975 42.793 55.206 44.436 55.295 44.501 55.455 44.551 55.536 44.505 56.348 44.044 57.152 43.563 58.02 43.05 57.244 42.468 56.529 41.897 55.786 41.38 53.484 39.78 51.018 38.564 48.51 37.45 47.596 37.044 46.736 36.554 46.117 35.643 45.194 34.284 45.174 32.655 46.088 31.307 46.529 31.658 46.971 32.01 47.414 32.359 50.784 35.012 54.354 37.273 58.039 39.308 58.904 39.786 59.766 40.273 60.636 40.738 60.758 40.803 60.969 40.834 61.061 40.759 61.798 40.153 62.517 39.518 63.268 38.869 59.106 36.747 55.078 34.408 51.255 31.581 51.408 31.589 51.561 31.591 51.714 31.606 53.388 31.774 55.045 31.606 56.703 31.338 58.192 31.098 59.686 30.882 61.182 30.715 61.966 30.627 62.743 30.807 63.49 31.098 63.923 31.266 64.276 31.578 64.565 31.978 65.296 32.985 65.82 34.115 66.13 35.372 66.154 35.471 66.183 35.569 66.22 35.709 66.333 35.591 66.426 35.508 66.504 35.409 67.016 34.764 67.533 34.123 68.028 33.462 68.111 33.352 68.167 33.118 68.121 32.997 67.573 31.561 66.859 30.25 65.796 29.218 65.036 28.481 64.119 28.173 63.163 27.968 61.637 27.642 60.113 27.755 58.589 27.995 57.09 28.232 55.594 28.499 54.09 28.688 53.428 28.772 52.75 28.706 52.079 28.688 51.94 28.684 51.795 28.612 51.664 28.542 49.131 27.176 47.602 24.932 47.089 21.805 47.076 21.73 47.077 21.651 47.068 21.532 47.51 21.76 47.929 21.971 48.345 22.191 50.788 23.482 53.364 23.989 56.047 23.869 57.8 23.791 59.554 23.712 61.307 23.64 63.558 23.548 65.528 24.336 67.168 26.097 68.209 27.215 68.856 28.597 69.158 30.18 69.217 30.49 69.192 30.82 69.208 31.141 69.215 31.275 69.227 31.408 69.243 31.639 69.372 31.508 69.463 31.445 69.519 31.354 70.103 30.401 70.677 29.441 71.263 28.49 71.399 28.27 71.353 28.07 71.277 27.857 70.751 26.379 69.957 25.109 68.96 23.991 67.975 22.885 66.851 22.026 65.486 21.455 65.594 21.429 65.644 21.408 65.693 21.407 67.405 21.353 69.116 21.253 70.827 21.267 71.889 21.276 72.951 21.452 74.012 21.567 74.377 21.607 74.396 21.611 74.522 21.228 74.779 20.444 75.038 19.661 75.311 18.834 74.842 18.735 74.399 18.625 73.952 18.551 71.967 18.22 69.972 18.255 67.975 18.358 65.913 18.465 63.85 18.586 61.787 18.669 60.274 18.73 58.758 18.795 57.245 18.755 56.045 18.723 54.838 18.605 53.652 18.398 51.906 18.094 50.534 17.03 49.445 15.469 48.087 13.523 47.138 11.367 46.783 8.904 46.698 8.311 46.652 7.711 46.581 7.04 46.733 7.156 46.832 7.228 46.927 7.305 49.731 9.592 52.846 10.999 56.271 11.512 58.717 11.879 61.126 11.602 63.52 10.98 65.045 10.583 66.574 10.192 68.116 9.909 70.112 9.543 72.019 10.012 73.838 10.967 74.203 11.158 74.549 11.396 74.933 11.63 75.533 10.986 76.155 10.318 76.778 9.65 75.947 8.74 74.939 8.25 73.902 7.812 72.437 7.194 70.931 6.833 69.364 6.858 68.12 6.878 66.902 7.123 65.685 7.397 63.416 7.906 61.127 8.185 58.809 8.012 57.315 7.901 55.898 7.453 54.537 6.761 54.303 6.643 54.067 6.532 53.829 6.348 53.912 6.323 53.995 6.293 54.08 6.274 57.186 5.548 60.158 4.372 63.019 2.833 63.873 2.374 64.708 1.871 65.55 1.385 66.895 .609 68.335 .166 69.803-.184 70.693-.395 71.586-.498 72.494-.441 73.477-.38 74.349 .031 75.165 .618 75.81 1.083 76.447 1.562 77.129 2.066 77.071 1.372 77.021 .73 76.964 .088 76.929-.299 76.896-.688 76.837-1.071 76.817-1.197 76.739-1.34 76.65-1.42 75.761-2.208 74.772-2.81 73.702-3.193 72.892-3.484 72.034-3.431 71.19-3.363 68.788-3.166 66.527-2.325 64.276-1.427 62.21-.603 60.146 .234 58.064 1.005 56.458 1.599 54.792 1.861 53.101 1.744 52.331 1.691 51.562 1.554 50.805 1.383 50.246 1.257 49.811 .817 49.379 .415 49.08 .137 48.798-.165 48.517-.467 48.432-.559 48.361-.677 48.309-.797 47.655-2.287 47.192-3.843 47.187-5.523 47.178-8.234 48.233-10.277 50.308-11.621 51.036-12.092 51.859-12.08 52.674-12.062 54.609-12.018 56.547-11.891 58.48-11.964 62.993-12.133 67.141-13.679 70.928-16.464 71.201-16.665 71.467-16.879 71.758-17.103 71.247-17.91 70.753-18.692 70.255-19.479 69.729-19.104 69.206-18.751 68.702-18.368 67.053-17.116 65.209-16.535 63.264-16.26 61.261-15.976 59.254-15.832 57.237-15.929 54.938-16.04 52.682-16.413 50.558-17.495 50.255-17.65 49.961-17.83 49.593-18.039 49.981-18.294 50.302-18.529 50.641-18.724 52.01-19.509 53.478-19.907 54.997-20.063 57.105-20.28 59.217-20.439 61.324-20.668 63.624-20.917 65.826-21.562 67.822-22.944 67.917-23.009 68.009-23.078 68.119-23.157 68.079-23.224 68.053-23.282 68.015-23.329 67.525-23.931 67.029-24.526 66.546-25.136 66.403-25.317 66.28-25.33 66.099-25.218 64.5-24.229 62.77-23.714 60.97-23.594 58.557-23.432 56.139-23.378 53.724-23.277 52.263-23.216 50.793-23.254 49.367-22.814 48.772-22.631 48.196-22.369 47.612-22.142 47.535-22.112 47.461-22.074 47.338-22.017 47.587-22.704 47.976-23.19 48.402-23.642 49.708-25.032 51.284-25.847 52.986-26.385 54.973-27.014 56.974-27.59 58.943-28.281 59.948-28.633 60.898-29.184 61.872-29.647 61.918-29.669 61.959-29.708 62.025-29.755 61.955-29.818 61.899-29.873 61.84-29.922 61.26-30.394 60.678-30.862 60.1-31.338 59.837-31.555 59.549-31.634 59.248-31.5 57.368-30.662 55.405-30.168 53.439-29.679 51.78-29.267 50.243-28.486 48.76-27.563 47.289-26.648 45.84-25.691 44.55-24.458 44.526-24.434 44.495-24.419 44.404-24.356 44.665-26.002 45.11-27.51 45.702-28.965 46.294-30.422 47.028-31.783 47.907-33.042 48.79-34.308 49.8-35.428 50.968-36.461 50.656-36.571 50.397-36.664 50.137-36.752 49.535-36.955 48.931-37.147 48.332-37.36 48.092-37.446 47.913-37.407 47.726-37.202 46.585-35.948 45.627-34.527 44.699-33.068 43.005-30.407 41.778-27.477 40.703-24.452 40.454-23.751 40.182-23.061 39.892-22.289 39.72-22.878 39.574-23.392 39.419-23.902 38.191-27.941 36.505-31.706 34.106-35.021 33.389-36.012 32.543-36.883 31.757-37.809 31.563-38.036 31.343-38.073 31.073-37.997 30.239-37.763 29.398-37.559 28.564-37.325 28.372-37.271 28.195-37.146 28.012-37.053 27.99-37.003 27.968-36.954 27.947-36.904 28.019-36.871 28.097-36.847 28.164-36.803 29.958-35.611 31.343-33.931 32.572-32.065 33.233-31.063 33.844-30.03 34.223-28.842 34.678-27.419 34.723-25.968 34.461-24.495 34.45-24.43 34.423-24.368 34.38-24.226 33.841-24.377 33.269-24.439 32.774-24.693 30.88-25.665 28.99-26.653 27.137-27.72 24.084-29.478 20.908-30.822 17.552-31.606 17.424-31.636 17.247-31.62 17.145-31.54 16.285-30.859 15.437-30.157 14.584-29.463 14.543-29.43 14.493-29.408 14.448-29.38 14.46-29.354 14.472-29.328 14.485-29.302 14.914-29.209 15.342-29.118 15.771-29.024 18.959-28.328 22.052-27.303 24.958-25.626 26.272-24.868 27.514-23.98 28.676-22.95 28.737-22.896 28.795-22.837 28.852-22.778 28.863-22.767 28.865-22.744 28.889-22.672 28.004-22.447 27.131-22.191 26.247-22.005 23.962-21.524 21.665-21.474 19.36-21.824 18.299-21.986 17.346-22.456 16.441-23.078 14.973-24.087 13.784-25.449 12.669-26.905 12.573-27.03 12.478-27.156 12.381-27.28 12.371-27.294 12.352-27.3 12.297-27.336 11.716-26.628 11.126-25.91 10.531-25.187 12.6-22.436 14.96-20.001 18.249-19.048 19.473-18.694 20.724-18.574 21.973-18.434 23.625-18.248 25.279-18.078 26.932-17.899 27.034-17.888 27.134-17.858 27.239-17.788 26.795-17.692 26.351-17.596 25.906-17.501 23.193-16.926 20.479-16.358 17.767-15.774 15.917-15.376 14.048-15.246 12.171-15.203 10.862-15.172 9.554-15.197 8.261-15.452 7.867-15.53 7.475-15.664 7.102-15.831 6.487-16.106 5.89-16.427 5.252-16.746 4.836-15.918 4.408-15.068 3.974-14.205 5.201-13.495 6.439-12.877 7.751-12.461 9.701-11.845 11.692-11.504 13.71-11.473 16.049-11.437 18.39-11.489 20.729-11.538 22.502-11.575 24.276-11.636 26.041-11.403 26.704-11.315 27.366-11.16 28.012-10.964 29.05-10.65 29.676-9.846 29.863-8.657 30.177-6.654 30.07-4.67 29.474-2.747 28.868-.79 27.596 .458 25.987 1.346 24.769 2.018 23.492 2.071 22.181 1.967 18.935 1.709 15.873 .629 12.858-.67 11.051-1.449 9.255-2.264 7.437-3.006 5.95-3.613 4.402-3.897 2.819-3.732 2.086-3.656 1.36-3.466 .637-3.293 .527-3.267 .392-3.071 .368-2.931 .246-2.215 .156-1.491 .052-.77 .043-.707 .018-.647 0-.585Z" fill="#594a42"/>
<path transform="matrix(2,0,0,-2,175.6408,633.5426)" d="M0 0C-1.946 0-3.808 .278-5.587 .836-7.366 1.393-8.778 2.111-9.822 2.989L-8.22 6.583C-7.224 5.799-5.99 5.148-4.52 4.625-3.049 4.104-1.542 3.843 0 3.843 1.304 3.843 2.36 3.984 3.166 4.27 3.973 4.555 4.566 4.94 4.946 5.425 5.325 5.911 5.516 6.463 5.516 7.08 5.516 7.84 5.242 8.451 4.697 8.913 4.151 9.377 3.445 9.743 2.579 10.017 1.713 10.29 .753 10.543-.303 10.781-1.358 11.018-2.415 11.298-3.47 11.618-4.525 11.939-5.486 12.353-6.352 12.862-7.218 13.372-7.924 14.055-8.469 14.909-9.015 15.763-9.287 16.854-9.287 18.183-9.287 19.536-8.927 20.774-8.203 21.902-7.479 23.029-6.376 23.93-4.894 24.606-3.411 25.281-1.53 25.62 .747 25.62 2.242 25.62 3.724 25.43 5.195 25.051 6.666 24.67 7.947 24.125 9.038 23.413L7.58 19.821C6.463 20.483 5.313 20.977 4.127 21.297 2.941 21.617 1.803 21.777 .711 21.777-.57 21.777-1.608 21.623-2.403 21.315-3.198 21.006-3.778 20.603-4.146 20.104-4.514 19.605-4.698 19.037-4.698 18.396-4.698 17.636-4.431 17.027-3.897 16.563-3.363 16.101-2.664 15.739-1.797 15.479-.931 15.218 .035 14.962 1.102 14.714 2.171 14.465 3.232 14.186 4.288 13.876 5.343 13.569 6.303 13.166 7.17 12.667 8.036 12.169 8.735 11.493 9.269 10.639 9.804 9.785 10.07 8.705 10.07 7.4 10.07 6.071 9.708 4.844 8.985 3.718 8.26 2.591 7.153 1.689 5.657 1.014 4.163 .337 2.277 0 0 0" fill="#594a42"/>
<path transform="matrix(2,0,0,-2,197.9166,632.8322)" d="M0 0 11.209 24.909H15.764L27.008 0H22.169L12.526 22.454H14.376L4.768 0Z" fill="#594a42"/>
<path transform="matrix(2,0,0,-2,0,1190.552)" d="M129.133 303.769H133.759V278.86003H129.133Z" fill="#594a42"/>
<path transform="matrix(2,0,0,-2,280.967,632.8322)" d="M0 0V24.909H3.808L19.429 5.729H17.543V24.909H22.133V0H18.326L2.704 19.18H4.591V0Z" fill="#594a42"/>
<path transform="matrix(2,0,0,-2,348.7184,632.8322)" d="M0 0V20.995H-8.255V24.909H12.882V20.995H4.627V0Z" fill="#594a42"/>
<path transform="matrix(2,0,0,-2,401.0972,632.8322)" d="M0 0V24.909H3.808L14.696 6.725H12.704L23.415 24.909H27.222L27.258 0H22.88L22.845 18.041H23.77L14.661 2.847H12.597L3.345 18.041H4.412V0Z" fill="#594a42"/>
<path transform="matrix(2,0,0,-2,462.017,632.8322)" d="M0 0 11.208 24.909H15.765L27.009 0H22.169L12.526 22.454H14.377L4.768 0Z" fill="#594a42"/>
<path transform="matrix(2,0,0,-2,554.963,632.8322)" d="M0 0-6.298 9.038H-1.353L4.982 0ZM-11.672 8.861-13.735 11.066H-6.263C-4.222 11.066-2.687 11.506-1.655 12.384-.622 13.26-.107 14.484-.107 16.048-.107 17.638-.622 18.86-1.655 19.714-2.687 20.568-4.222 20.995-6.263 20.995H-13.735L-11.672 23.271ZM-16.296 0V24.909H-6.049C-3.843 24.909-1.951 24.552-.374 23.842 1.204 23.13 2.42 22.11 3.274 20.781 4.128 19.453 4.555 17.876 4.555 16.048 4.555 14.222 4.128 12.651 3.274 11.333 2.42 10.017 1.204 9.009-.374 8.309-1.951 7.608-3.843 7.258-6.049 7.258H-13.735L-11.672 9.358V0Z" fill="#594a42"/>
<path transform="matrix(2,0,0,-2,583.787,632.8322)" d="M0 0V20.995H-8.256V24.909H12.883V20.995H4.627V0Z" fill="#594a42"/>
<path transform="matrix(2,0,0,-2,0,1190.552)" d="M308.264 303.769H312.889V278.86003H308.264Z" fill="#594a42"/>
<path transform="matrix(2,0,0,-2,639.23,632.8322)" d="M0 0V24.909H3.806L19.429 5.729H17.542V24.909H22.132V0H18.325L2.703 19.18H4.59V0Z" fill="#594a42"/>
</g>
<use data-text="C" xlink:href="#font_2_38" transform="matrix(46.1184,0,0,-46.1184,331.8536,699.3908)" fill="#594a42"/>
<use data-text="A" xlink:href="#font_2_36" transform="matrix(46.1184,0,0,-46.1184,349.64146,699.3908)" fill="#594a42"/>
<use data-text="R" xlink:href="#font_2_53" transform="matrix(46.1184,0,0,-46.1184,370.76368,699.3908)" fill="#594a42"/>
<use data-text="T" xlink:href="#font_2_55" transform="matrix(46.1184,0,0,-46.1184,390.74217,699.3908)" fill="#594a42"/>
<use data-text="A" xlink:href="#font_2_36" transform="matrix(46.1184,0,0,-46.1184,409.04658,699.3908)" fill="#594a42"/>
<use data-text=" " xlink:href="#font_2_3" transform="matrix(46.1184,0,0,-46.1184,430.1688,699.3908)" fill="#594a42"/>
<use data-text="V" xlink:href="#font_2_57" transform="matrix(46.1184,0,0,-46.1184,440.91438,699.3908)" fill="#594a42"/>
<use data-text="I" xlink:href="#font_2_44" transform="matrix(46.1184,0,0,-46.1184,461.5754,699.3908)" fill="#594a42"/>
<use data-text="N" xlink:href="#font_2_49" transform="matrix(46.1184,0,0,-46.1184,473.5662,699.3908)" fill="#594a42"/>
<use data-text="I" xlink:href="#font_2_44" transform="matrix(46.1184,0,0,-46.1184,495.65693,699.3908)" fill="#594a42"/>
<use data-text="S" xlink:href="#font_2_54" transform="matrix(46.1184,0,0,-46.1184,378.4332,1132.3042)" fill="#594a42"/>
<use data-text="o" xlink:href="#font_2_82" transform="matrix(46.1184,0,0,-46.1184,396.18879,1132.3042)" fill="#594a42"/>
<use data-text="m" xlink:href="#font_2_80" transform="matrix(46.1184,0,0,-46.1184,412.0535,1132.3042)" fill="#594a42"/>
<use data-text="m" xlink:href="#font_2_80" transform="matrix(46.1184,0,0,-46.1184,437.51087,1132.3042)" fill="#594a42"/>
<use data-text="e" xlink:href="#font_2_72" transform="matrix(46.1184,0,0,-46.1184,462.96824,1132.3042)" fill="#594a42"/>
<use data-text="l" xlink:href="#font_2_79" transform="matrix(46.1184,0,0,-46.1184,478.83296,1132.3042)" fill="#594a42"/>
<use data-text="i" xlink:href="#font_2_76" transform="matrix(46.1184,0,0,-46.1184,487.9644,1132.3042)" fill="#594a42"/>
<use data-text="e" xlink:href="#font_2_72" transform="matrix(46.1184,0,0,-46.1184,498.06434,1132.3042)" fill="#594a42"/>
<use data-text="r" xlink:href="#font_2_85" transform="matrix(46.1184,0,0,-46.1184,513.9291,1132.3042)" fill="#594a42"/>
<use data-text=":" xlink:href="#font_2_29" transform="matrix(46.1184,0,0,-46.1184,528.7239,1132.3042)" fill="#594a42"/>
<use data-text=" " xlink:href="#font_2_3" transform="matrix(46.1184,0,0,-46.1184,532.9576,1132.3042)" fill="#594a42"/>
<use data-text="C" xlink:href="#font_2_38" transform="matrix(46.1184,0,0,-46.1184,548.315,1132.3042)" fill="#594a42"/>
<use data-text="i" xlink:href="#font_2_76" transform="matrix(46.1184,0,0,-46.1184,567.03909,1132.3042)" fill="#594a42"/>
<use data-text="c" xlink:href="#font_2_70" transform="matrix(46.1184,0,0,-46.1184,577.139,1132.3042)" fill="#594a42"/>
<use data-text="e" xlink:href="#font_2_72" transform="matrix(46.1184,0,0,-46.1184,593.0037,1132.3042)" fill="#594a42"/>
<use data-text="r" xlink:href="#font_2_85" transform="matrix(46.1184,0,0,-46.1184,608.86849,1132.3042)" fill="#594a42"/>
<use data-text="c" xlink:href="#font_2_70" transform="matrix(46.1184,0,0,-46.1184,621.82778,1132.3042)" fill="#594a42"/>
<use data-text="h" xlink:href="#font_2_75" transform="matrix(46.1184,0,0,-46.1184,637.6925,1132.3042)" fill="#594a42"/>
<use data-text="i" xlink:href="#font_2_76" transform="matrix(46.1184,0,0,-46.1184,654.9869,1132.3042)" fill="#594a42"/>
<use data-text="a" xlink:href="#font_2_68" transform="matrix(46.1184,0,0,-46.1184,665.0868,1132.3042)" fill="#594a42"/>
<use data-text=" " xlink:href="#font_2_3" transform="matrix(46.1184,0,0,-46.1184,682.38119,1132.3042)" fill="#594a42"/>
<use data-text="D" xlink:href="#font_2_39" transform="matrix(46.1184,0,0,-46.1184,697.7386,1132.3042)" fill="#594a42"/>
<use data-text="a" xlink:href="#font_2_68" transform="matrix(46.1184,0,0,-46.1184,717.9385,1132.3042)" fill="#594a42"/>
<use data-text="n" xlink:href="#font_2_81" transform="matrix(46.1184,0,0,-46.1184,735.23287,1132.3042)" fill="#594a42"/>
<use data-text="i" xlink:href="#font_2_76" transform="matrix(46.1184,0,0,-46.1184,752.9884,1132.3042)" fill="#594a42"/>
<use data-text="e" xlink:href="#font_2_72" transform="matrix(46.1184,0,0,-46.1184,763.0883,1132.3042)" fill="#594a42"/>
<use data-text="l" xlink:href="#font_2_79" transform="matrix(46.1184,0,0,-46.1184,778.95309,1132.3042)" fill="#594a42"/>
<use data-text="e" xlink:href="#font_2_72" transform="matrix(46.1184,0,0,-46.1184,788.08456,1132.3042)" fill="#594a42"/>
</g>
</g>
</svg>